<mxfile host="app.diagrams.net" agent="Mozilla/5.0 (X11; Linux x86_64) AppleWebKit/537.36 (KHTML, like Gecko) Chrome/129.0.0.0 Safari/537.36" version="24.7.16">
  <diagram name="Página-1" id="uJrBAzATo333ZaOnw0ur">
    <mxGraphModel dx="6524" dy="6520" grid="1" gridSize="10" guides="1" tooltips="1" connect="1" arrows="1" fold="1" page="1" pageScale="1" pageWidth="1500" pageHeight="2000" math="0" shadow="0">
      <root>
        <mxCell id="0" />
        <mxCell id="1" parent="0" />
        <mxCell id="gnkaqfE58BtBJmnsjo4r-6" value="Funcionario" style="html=1;overflow=block;blockSpacing=1;shape=umlActor;labelPosition=center;verticalLabelPosition=bottom;verticalAlign=top;whiteSpace=nowrap;fontSize=52;spacing=0;rounded=1;absoluteArcSize=1;arcSize=9;fillColor=none;strokeWidth=9;lucidId=dhcdZfQkDWk0;" vertex="1" parent="1">
          <mxGeometry x="-1140" y="45" width="138" height="255" as="geometry" />
        </mxCell>
        <mxCell id="gnkaqfE58BtBJmnsjo4r-196" style="edgeStyle=orthogonalEdgeStyle;rounded=0;orthogonalLoop=1;jettySize=auto;html=1;fontFamily=Helvetica;fontSize=12;fontColor=default;endArrow=none;endFill=0;strokeWidth=9;" edge="1" parent="1" source="gnkaqfE58BtBJmnsjo4r-7">
          <mxGeometry relative="1" as="geometry">
            <mxPoint x="80" y="172.5" as="targetPoint" />
          </mxGeometry>
        </mxCell>
        <mxCell id="gnkaqfE58BtBJmnsjo4r-7" value="Gerente" style="html=1;overflow=block;blockSpacing=1;shape=umlActor;labelPosition=center;verticalLabelPosition=bottom;verticalAlign=top;whiteSpace=nowrap;fontSize=52;spacing=0;rounded=1;absoluteArcSize=1;arcSize=9;fillColor=none;strokeWidth=9;lucidId=Djcd-51i~yfi;" vertex="1" parent="1">
          <mxGeometry x="-435" y="45" width="138" height="255" as="geometry" />
        </mxCell>
        <mxCell id="gnkaqfE58BtBJmnsjo4r-8" value="" style="html=1;jettySize=18;whiteSpace=wrap;fontSize=52;strokeWidth=9;rounded=1;arcSize=12;edgeStyle=orthogonalEdgeStyle;startArrow=none;lucidId=bkcdIDjzHaLn;fillColor=none;" edge="1" parent="1">
          <mxGeometry width="100" height="100" relative="1" as="geometry">
            <Array as="points">
              <mxPoint x="-1067" y="173" />
            </Array>
            <mxPoint x="-945" y="173" as="sourcePoint" />
            <mxPoint x="-480" y="173" as="targetPoint" />
          </mxGeometry>
        </mxCell>
        <mxCell id="gnkaqfE58BtBJmnsjo4r-10" value="Gerente de&amp;nbsp;&lt;div style=&quot;font-size: 52px;&quot;&gt;Negócios&lt;/div&gt;" style="html=1;overflow=block;blockSpacing=1;shape=umlActor;labelPosition=center;verticalLabelPosition=bottom;verticalAlign=top;whiteSpace=nowrap;fontSize=52;spacing=0;rounded=1;absoluteArcSize=1;arcSize=9;fillColor=none;strokeWidth=9;lucidId=Kkcd_lmus3rN;" vertex="1" parent="1">
          <mxGeometry x="141" y="-765" width="138" height="255" as="geometry" />
        </mxCell>
        <mxCell id="gnkaqfE58BtBJmnsjo4r-11" value="" style="html=1;jettySize=18;whiteSpace=wrap;fontSize=52;strokeWidth=9;rounded=1;arcSize=12;edgeStyle=orthogonalEdgeStyle;startArrow=none;exitX=0.5;exitY=-0.015;exitPerimeter=0;lucidId=5kcdnF7-QhT0;fillColor=none;" edge="1" parent="1" source="gnkaqfE58BtBJmnsjo4r-7">
          <mxGeometry width="100" height="100" relative="1" as="geometry">
            <Array as="points">
              <mxPoint x="-360" y="-637" />
            </Array>
            <mxPoint x="81" y="-637" as="targetPoint" />
          </mxGeometry>
        </mxCell>
        <mxCell id="gnkaqfE58BtBJmnsjo4r-82" style="edgeStyle=orthogonalEdgeStyle;rounded=0;orthogonalLoop=1;jettySize=auto;html=1;entryX=0;entryY=0.5;entryDx=0;entryDy=0;fontFamily=Helvetica;fontSize=52;fontColor=default;strokeWidth=9;fillColor=none;" edge="1" parent="1" source="gnkaqfE58BtBJmnsjo4r-12" target="gnkaqfE58BtBJmnsjo4r-23">
          <mxGeometry relative="1" as="geometry">
            <Array as="points">
              <mxPoint x="800" y="203" />
              <mxPoint x="800" y="3" />
            </Array>
          </mxGeometry>
        </mxCell>
        <mxCell id="gnkaqfE58BtBJmnsjo4r-12" value="Gerente de inventário&lt;div style=&quot;font-size: 52px;&quot;&gt;&amp;nbsp;e Processos&lt;/div&gt;" style="html=1;overflow=block;blockSpacing=1;shape=umlActor;labelPosition=center;verticalLabelPosition=bottom;verticalAlign=top;whiteSpace=nowrap;fontSize=52;spacing=0;rounded=1;absoluteArcSize=1;arcSize=9;fillColor=none;strokeWidth=9;lucidId=plcdrG2M4cJR;align=center;" vertex="1" parent="1">
          <mxGeometry x="120" y="75" width="138" height="255" as="geometry" />
        </mxCell>
        <mxCell id="gnkaqfE58BtBJmnsjo4r-74" style="edgeStyle=orthogonalEdgeStyle;rounded=0;orthogonalLoop=1;jettySize=auto;html=1;fontFamily=Helvetica;fontSize=52;fontColor=default;strokeWidth=9;fillColor=none;" edge="1" parent="1" source="gnkaqfE58BtBJmnsjo4r-16">
          <mxGeometry relative="1" as="geometry">
            <mxPoint x="240" y="-970" as="targetPoint" />
          </mxGeometry>
        </mxCell>
        <mxCell id="gnkaqfE58BtBJmnsjo4r-16" value="Atendente" style="html=1;overflow=block;blockSpacing=1;shape=umlActor;labelPosition=center;verticalLabelPosition=bottom;verticalAlign=top;whiteSpace=nowrap;fontSize=52;spacing=0;rounded=1;absoluteArcSize=1;arcSize=9;fillColor=none;strokeWidth=9;lucidId=YncdPASb2~EH;" vertex="1" parent="1">
          <mxGeometry x="195" y="-1305" width="138" height="255" as="geometry" />
        </mxCell>
        <mxCell id="gnkaqfE58BtBJmnsjo4r-17" value="" style="html=1;jettySize=18;whiteSpace=wrap;fontSize=52;strokeWidth=9;rounded=1;arcSize=12;edgeStyle=orthogonalEdgeStyle;startArrow=none;exitX=0.5;exitY=-0.015;exitPerimeter=0;lucidId=_ncdG-t.Hgij;fillColor=none;" edge="1" parent="1" source="gnkaqfE58BtBJmnsjo4r-6">
          <mxGeometry width="100" height="100" relative="1" as="geometry">
            <Array as="points">
              <mxPoint x="-1071" y="-1155" />
            </Array>
            <mxPoint x="135" y="-1155" as="targetPoint" />
          </mxGeometry>
        </mxCell>
        <mxCell id="gnkaqfE58BtBJmnsjo4r-19" value="Cadastra hóspede" style="html=1;overflow=block;blockSpacing=1;whiteSpace=wrap;ellipse;fontSize=52;spacing=3.8;rounded=1;absoluteArcSize=1;arcSize=9;fillColor=none;strokeWidth=9;lucidId=DocdLys_JZiH;" vertex="1" parent="1">
          <mxGeometry x="1065" y="-1515" width="645" height="345" as="geometry" />
        </mxCell>
        <mxCell id="gnkaqfE58BtBJmnsjo4r-20" value="" style="html=1;jettySize=18;whiteSpace=wrap;fontSize=52;strokeWidth=9;rounded=1;arcSize=12;edgeStyle=orthogonalEdgeStyle;startArrow=none;endArrow=none;entryX=-0.006;entryY=0.5;entryPerimeter=0;lucidId=cpcdgIZXFv_m;fillColor=none;" edge="1" parent="1" target="gnkaqfE58BtBJmnsjo4r-19">
          <mxGeometry width="100" height="100" relative="1" as="geometry">
            <Array as="points" />
            <mxPoint x="390" y="-1170" as="sourcePoint" />
          </mxGeometry>
        </mxCell>
        <mxCell id="gnkaqfE58BtBJmnsjo4r-21" value="Cadastra convenio com operadoras de turismo e empresas" style="html=1;overflow=block;blockSpacing=1;whiteSpace=wrap;ellipse;fontSize=52;spacing=3.8;rounded=1;absoluteArcSize=1;arcSize=9;fillColor=none;strokeWidth=9;lucidId=ppcdXsXDfB30;" vertex="1" parent="1">
          <mxGeometry x="900" y="-1050" width="704" height="345" as="geometry" />
        </mxCell>
        <mxCell id="gnkaqfE58BtBJmnsjo4r-22" value="" style="html=1;jettySize=18;whiteSpace=wrap;fontSize=52;strokeWidth=9;rounded=1;arcSize=12;edgeStyle=orthogonalEdgeStyle;startArrow=none;endArrow=none;entryX=-0.005;entryY=0.5;entryPerimeter=0;lucidId=ppcddyxYoiO.;fillColor=none;" edge="1" parent="1" target="gnkaqfE58BtBJmnsjo4r-21">
          <mxGeometry width="100" height="100" relative="1" as="geometry">
            <Array as="points" />
            <mxPoint x="366" y="-585" as="sourcePoint" />
          </mxGeometry>
        </mxCell>
        <mxCell id="gnkaqfE58BtBJmnsjo4r-23" value="Cadastra quartos e equipamentos" style="html=1;overflow=block;blockSpacing=1;whiteSpace=wrap;ellipse;fontSize=52;spacing=3.8;rounded=1;absoluteArcSize=1;arcSize=9;fillColor=none;strokeWidth=9;lucidId=kqcdeaaTe-Xc;" vertex="1" parent="1">
          <mxGeometry x="1107" y="-170" width="704" height="345" as="geometry" />
        </mxCell>
        <mxCell id="gnkaqfE58BtBJmnsjo4r-25" value="Registra valores de Diária em cada período" style="html=1;overflow=block;blockSpacing=1;whiteSpace=wrap;ellipse;fontSize=52;spacing=3.8;rounded=1;absoluteArcSize=1;arcSize=9;fillColor=none;strokeWidth=9;lucidId=VscdY_612fUA;" vertex="1" parent="1">
          <mxGeometry x="945" y="-585" width="704" height="345" as="geometry" />
        </mxCell>
        <mxCell id="gnkaqfE58BtBJmnsjo4r-26" value="" style="html=1;jettySize=18;whiteSpace=wrap;fontSize=52;strokeWidth=9;rounded=1;arcSize=12;edgeStyle=orthogonalEdgeStyle;startArrow=none;endArrow=none;exitX=-0.005;exitY=0.5;exitPerimeter=0;lucidId=8scdR_2cczW8;fillColor=none;" edge="1" parent="1" source="gnkaqfE58BtBJmnsjo4r-25">
          <mxGeometry width="100" height="100" relative="1" as="geometry">
            <Array as="points" />
            <mxPoint x="628" y="-585" as="targetPoint" />
          </mxGeometry>
        </mxCell>
        <mxCell id="gnkaqfE58BtBJmnsjo4r-27" value="Gerente de Recursos&lt;div style=&quot;font-size: 52px;&quot;&gt;&amp;nbsp;Humanos&lt;/div&gt;" style="html=1;overflow=block;blockSpacing=1;shape=umlActor;labelPosition=center;verticalLabelPosition=bottom;verticalAlign=top;whiteSpace=nowrap;fontSize=52;spacing=0;rounded=1;absoluteArcSize=1;arcSize=9;fillColor=none;strokeWidth=9;lucidId=qucdIOakeKyN;align=center;" vertex="1" parent="1">
          <mxGeometry x="90" y="1230" width="138" height="255" as="geometry" />
        </mxCell>
        <mxCell id="gnkaqfE58BtBJmnsjo4r-28" value="Cadastra funcionarios e Escalas" style="html=1;overflow=block;blockSpacing=1;whiteSpace=wrap;ellipse;fontSize=52;spacing=3.8;rounded=1;absoluteArcSize=1;arcSize=9;fillColor=none;strokeWidth=9;lucidId=dvcddmE53v4o;" vertex="1" parent="1">
          <mxGeometry x="870" y="1005" width="704" height="345" as="geometry" />
        </mxCell>
        <mxCell id="gnkaqfE58BtBJmnsjo4r-29" value="" style="html=1;jettySize=18;whiteSpace=wrap;fontSize=52;strokeWidth=9;rounded=1;arcSize=12;edgeStyle=orthogonalEdgeStyle;startArrow=none;endArrow=none;exitX=-0.005;exitY=0.5;exitPerimeter=0;lucidId=ivcd9-MBvtOg;fillColor=none;" edge="1" parent="1" source="gnkaqfE58BtBJmnsjo4r-28">
          <mxGeometry width="100" height="100" relative="1" as="geometry">
            <Array as="points" />
            <mxPoint x="285" y="1350" as="targetPoint" />
          </mxGeometry>
        </mxCell>
        <mxCell id="gnkaqfE58BtBJmnsjo4r-30" value="" style="html=1;jettySize=18;whiteSpace=wrap;fontSize=52;strokeWidth=9;rounded=1;arcSize=12;edgeStyle=orthogonalEdgeStyle;startArrow=none;endArrow=none;exitX=0;exitY=0.5;exitPerimeter=0;lucidId=Evcdu263G3AM;fillColor=none;" edge="1" parent="1" source="gnkaqfE58BtBJmnsjo4r-27">
          <mxGeometry width="100" height="100" relative="1" as="geometry">
            <Array as="points" />
            <mxPoint x="-360" y="405" as="targetPoint" />
          </mxGeometry>
        </mxCell>
        <mxCell id="gnkaqfE58BtBJmnsjo4r-31" value="Cadastra espaçõs e eventos" style="html=1;overflow=block;blockSpacing=1;whiteSpace=wrap;ellipse;fontSize=52;spacing=3.8;rounded=1;absoluteArcSize=1;arcSize=9;fillColor=none;strokeWidth=9;lucidId=WzcdXngbt~H~;" vertex="1" parent="1">
          <mxGeometry x="1077" y="520" width="704" height="345" as="geometry" />
        </mxCell>
        <mxCell id="gnkaqfE58BtBJmnsjo4r-32" value="" style="html=1;jettySize=18;whiteSpace=wrap;fontSize=52;strokeWidth=9;rounded=1;arcSize=12;edgeStyle=orthogonalEdgeStyle;startArrow=none;endArrow=none;exitX=-0.005;exitY=0.5;exitPerimeter=0;lucidId=3AcdsqHbFX.m;fillColor=none;" edge="1" parent="1" source="gnkaqfE58BtBJmnsjo4r-31">
          <mxGeometry width="100" height="100" relative="1" as="geometry">
            <Array as="points">
              <mxPoint x="800" y="693" />
              <mxPoint x="800" y="210" />
            </Array>
            <mxPoint x="790" y="210" as="targetPoint" />
          </mxGeometry>
        </mxCell>
        <mxCell id="gnkaqfE58BtBJmnsjo4r-33" value="Organiza e cadastra eventos e reuniões" style="html=1;overflow=block;blockSpacing=1;whiteSpace=wrap;ellipse;fontSize=52;spacing=3.8;rounded=1;absoluteArcSize=1;arcSize=9;fillColor=none;strokeWidth=9;lucidId=CBcdQI~2sIBX;" vertex="1" parent="1">
          <mxGeometry x="870" y="1560" width="704" height="345" as="geometry" />
        </mxCell>
        <mxCell id="gnkaqfE58BtBJmnsjo4r-34" value="" style="html=1;jettySize=18;whiteSpace=wrap;fontSize=52;strokeWidth=9;rounded=1;arcSize=12;edgeStyle=orthogonalEdgeStyle;startArrow=none;endArrow=none;exitX=-0.005;exitY=0.5;exitPerimeter=0;lucidId=MBcdMKAVMKU4;fillColor=none;" edge="1" parent="1" source="gnkaqfE58BtBJmnsjo4r-33">
          <mxGeometry width="100" height="100" relative="1" as="geometry">
            <Array as="points" />
            <mxPoint x="570" y="1350" as="targetPoint" />
          </mxGeometry>
        </mxCell>
        <mxCell id="gnkaqfE58BtBJmnsjo4r-194" style="edgeStyle=orthogonalEdgeStyle;rounded=0;orthogonalLoop=1;jettySize=auto;html=1;fontFamily=Helvetica;fontSize=12;fontColor=default;strokeWidth=9;endArrow=none;endFill=0;" edge="1" parent="1" source="gnkaqfE58BtBJmnsjo4r-35">
          <mxGeometry relative="1" as="geometry">
            <mxPoint x="550" y="2738" as="targetPoint" />
          </mxGeometry>
        </mxCell>
        <mxCell id="gnkaqfE58BtBJmnsjo4r-35" value="Chef de restaurante" style="html=1;overflow=block;blockSpacing=1;shape=umlActor;labelPosition=center;verticalLabelPosition=bottom;verticalAlign=top;whiteSpace=nowrap;fontSize=52;spacing=0;rounded=1;absoluteArcSize=1;arcSize=9;fillColor=none;strokeWidth=9;lucidId=ECcdKnjGr7EQ;" vertex="1" parent="1">
          <mxGeometry x="90" y="2610" width="138" height="255" as="geometry" />
        </mxCell>
        <mxCell id="gnkaqfE58BtBJmnsjo4r-37" value="" style="html=1;jettySize=18;whiteSpace=wrap;fontSize=52;strokeWidth=9;rounded=1;arcSize=12;edgeStyle=orthogonalEdgeStyle;startArrow=none;endArrow=none;lucidId=UCcd2oop5OOD;fillColor=none;" edge="1" parent="1">
          <mxGeometry width="100" height="100" relative="1" as="geometry">
            <Array as="points">
              <mxPoint x="-1080" y="2738" />
            </Array>
            <mxPoint x="-1080" y="375" as="sourcePoint" />
            <mxPoint x="75" y="2738" as="targetPoint" />
          </mxGeometry>
        </mxCell>
        <mxCell id="gnkaqfE58BtBJmnsjo4r-38" value="Controla estoque e dispensa do room service" style="html=1;overflow=block;blockSpacing=1;whiteSpace=wrap;ellipse;fontSize=52;spacing=3.8;rounded=1;absoluteArcSize=1;arcSize=9;fillColor=none;strokeWidth=9;lucidId=RDcdJreU1p-L;" vertex="1" parent="1">
          <mxGeometry x="855" y="2025" width="704" height="345" as="geometry" />
        </mxCell>
        <mxCell id="gnkaqfE58BtBJmnsjo4r-40" value="Cadatra cardapios do restaurante e do room service" style="html=1;overflow=block;blockSpacing=1;whiteSpace=wrap;ellipse;fontSize=52;spacing=3.8;rounded=1;absoluteArcSize=1;arcSize=9;fillColor=none;strokeWidth=9;lucidId=tEcdR2Hr91C0;" vertex="1" parent="1">
          <mxGeometry x="870" y="2460" width="704" height="345" as="geometry" />
        </mxCell>
        <mxCell id="gnkaqfE58BtBJmnsjo4r-41" value="Faz baixas no estoque" style="html=1;overflow=block;blockSpacing=1;whiteSpace=wrap;ellipse;fontSize=52;spacing=3.8;rounded=1;absoluteArcSize=1;arcSize=9;fillColor=none;strokeWidth=9;lucidId=RFcd6PAY-MK_;" vertex="1" parent="1">
          <mxGeometry x="789" y="4628" width="704" height="345" as="geometry" />
        </mxCell>
        <mxCell id="gnkaqfE58BtBJmnsjo4r-77" style="edgeStyle=orthogonalEdgeStyle;rounded=0;orthogonalLoop=1;jettySize=auto;html=1;entryX=0;entryY=0.5;entryDx=0;entryDy=0;fontFamily=Helvetica;fontSize=52;fontColor=default;strokeWidth=9;endArrow=none;endFill=0;fillColor=none;" edge="1" parent="1" source="gnkaqfE58BtBJmnsjo4r-42" target="gnkaqfE58BtBJmnsjo4r-41">
          <mxGeometry relative="1" as="geometry" />
        </mxCell>
        <mxCell id="gnkaqfE58BtBJmnsjo4r-42" value="Garçon e atendentes&lt;div style=&quot;font-size: 52px;&quot;&gt;&amp;nbsp;do restaurante&lt;/div&gt;" style="html=1;overflow=block;blockSpacing=1;shape=umlActor;labelPosition=center;verticalLabelPosition=bottom;verticalAlign=top;whiteSpace=nowrap;fontSize=52;spacing=0;rounded=1;absoluteArcSize=1;arcSize=9;fillColor=none;strokeWidth=9;lucidId=2FcdAAeAINHJ;" vertex="1" parent="1">
          <mxGeometry x="24" y="4553" width="138" height="255" as="geometry" />
        </mxCell>
        <mxCell id="gnkaqfE58BtBJmnsjo4r-43" value="" style="html=1;jettySize=18;whiteSpace=wrap;fontSize=52;strokeWidth=9;rounded=1;arcSize=12;edgeStyle=orthogonalEdgeStyle;startArrow=none;endArrow=none;lucidId=8FcdpJ3LcOLb;fillColor=none;" edge="1" parent="1">
          <mxGeometry width="100" height="100" relative="1" as="geometry">
            <Array as="points">
              <mxPoint x="-1140" y="4671" />
            </Array>
            <mxPoint x="-51" y="4673" as="sourcePoint" />
            <mxPoint x="-1074" y="2738" as="targetPoint" />
          </mxGeometry>
        </mxCell>
        <mxCell id="gnkaqfE58BtBJmnsjo4r-44" value="" style="html=1;jettySize=18;whiteSpace=wrap;fontSize=52;strokeWidth=9;rounded=1;arcSize=12;edgeStyle=orthogonalEdgeStyle;startArrow=none;endArrow=none;exitX=-0.005;exitY=0.5;exitPerimeter=0;lucidId=8GcdyS31ROrJ;fillColor=none;" edge="1" parent="1" source="gnkaqfE58BtBJmnsjo4r-40">
          <mxGeometry width="100" height="100" relative="1" as="geometry">
            <Array as="points">
              <mxPoint x="551" y="2633" />
            </Array>
            <mxPoint x="551" y="2730" as="targetPoint" />
          </mxGeometry>
        </mxCell>
        <mxCell id="gnkaqfE58BtBJmnsjo4r-45" value="" style="html=1;jettySize=18;whiteSpace=wrap;fontSize=52;strokeWidth=9;rounded=1;arcSize=12;edgeStyle=orthogonalEdgeStyle;startArrow=none;endArrow=none;exitX=0.5;exitY=-0.011;exitPerimeter=0;lucidId=YIcdNx1lD2dl;fillColor=none;" edge="1" parent="1" source="gnkaqfE58BtBJmnsjo4r-41">
          <mxGeometry width="100" height="100" relative="1" as="geometry">
            <Array as="points">
              <mxPoint x="1141" y="4601" />
              <mxPoint x="1136" y="4601" />
              <mxPoint x="1136" y="4140" />
              <mxPoint x="551" y="4140" />
              <mxPoint x="551" y="3677" />
              <mxPoint x="554" y="3677" />
            </Array>
            <mxPoint x="554" y="2730" as="targetPoint" />
          </mxGeometry>
        </mxCell>
        <mxCell id="gnkaqfE58BtBJmnsjo4r-46" value="Hóspede" style="html=1;overflow=block;blockSpacing=1;shape=umlActor;labelPosition=center;verticalLabelPosition=bottom;verticalAlign=top;whiteSpace=nowrap;fontSize=52;spacing=0;rounded=1;absoluteArcSize=1;arcSize=9;fillColor=none;strokeWidth=9;lucidId=nJcd4aM7w7-o;" vertex="1" parent="1">
          <mxGeometry x="5465" y="1125" width="138" height="255" as="geometry" />
        </mxCell>
        <mxCell id="gnkaqfE58BtBJmnsjo4r-47" value="Faz pedido no restaurante" style="html=1;overflow=block;blockSpacing=1;whiteSpace=wrap;ellipse;fontSize=52;spacing=3.8;rounded=1;absoluteArcSize=1;arcSize=9;fillColor=none;strokeWidth=9;lucidId=JJcdyQFme5uM;" vertex="1" parent="1">
          <mxGeometry x="3743" y="2505" width="704" height="345" as="geometry" />
        </mxCell>
        <mxCell id="gnkaqfE58BtBJmnsjo4r-48" value="" style="html=1;jettySize=18;whiteSpace=wrap;fontSize=52;dashed=1;fixDash=1;strokeWidth=9;rounded=0;startArrow=none;endArrow=block;endFill=1;exitX=1.005;exitY=0.5;exitPerimeter=0;entryX=-0.005;entryY=0.5;entryPerimeter=0;lucidId=.Kcdje0b9Khs;fillColor=none;dashPattern=12 12;" edge="1" parent="1" source="gnkaqfE58BtBJmnsjo4r-41" target="gnkaqfE58BtBJmnsjo4r-47">
          <mxGeometry width="100" height="100" relative="1" as="geometry">
            <Array as="points" />
          </mxGeometry>
        </mxCell>
        <mxCell id="gnkaqfE58BtBJmnsjo4r-50" value="" style="html=1;jettySize=18;whiteSpace=wrap;fontSize=52;strokeWidth=9;rounded=1;arcSize=12;edgeStyle=orthogonalEdgeStyle;startArrow=none;endArrow=none;entryX=1.005;entryY=0.5;entryPerimeter=0;lucidId=yMcdP5HY8F55;fillColor=none;" edge="1" parent="1" target="gnkaqfE58BtBJmnsjo4r-47">
          <mxGeometry width="100" height="100" relative="1" as="geometry">
            <Array as="points" />
            <mxPoint x="5540" y="1455" as="sourcePoint" />
          </mxGeometry>
        </mxCell>
        <mxCell id="gnkaqfE58BtBJmnsjo4r-84" style="edgeStyle=orthogonalEdgeStyle;rounded=0;orthogonalLoop=1;jettySize=auto;html=1;entryX=1;entryY=0.5;entryDx=0;entryDy=0;fontFamily=Helvetica;fontSize=52;fontColor=default;strokeWidth=9;endArrow=none;endFill=0;fillColor=none;" edge="1" parent="1" source="gnkaqfE58BtBJmnsjo4r-51" target="gnkaqfE58BtBJmnsjo4r-56">
          <mxGeometry relative="1" as="geometry">
            <Array as="points">
              <mxPoint x="5439" y="4673" />
            </Array>
          </mxGeometry>
        </mxCell>
        <mxCell id="gnkaqfE58BtBJmnsjo4r-51" value="Fornecedor" style="html=1;overflow=block;blockSpacing=1;shape=umlActor;labelPosition=center;verticalLabelPosition=bottom;verticalAlign=top;whiteSpace=nowrap;fontSize=52;spacing=0;rounded=1;absoluteArcSize=1;arcSize=9;fillColor=none;strokeWidth=9;lucidId=iNcdsYr5~yyS;" vertex="1" parent="1">
          <mxGeometry x="5370" y="3720" width="138" height="255" as="geometry" />
        </mxCell>
        <mxCell id="gnkaqfE58BtBJmnsjo4r-52" value="Realiza reserva de quarto" style="html=1;overflow=block;blockSpacing=1;whiteSpace=wrap;ellipse;fontSize=52;spacing=3.8;rounded=1;absoluteArcSize=1;arcSize=9;fillColor=none;strokeWidth=9;lucidId=yNcdwA~H~~Sd;" vertex="1" parent="1">
          <mxGeometry x="3765" y="-960" width="809" height="480" as="geometry" />
        </mxCell>
        <mxCell id="gnkaqfE58BtBJmnsjo4r-53" value="" style="html=1;jettySize=18;whiteSpace=wrap;fontSize=52;strokeWidth=9;rounded=1;arcSize=12;edgeStyle=orthogonalEdgeStyle;startArrow=none;endArrow=none;exitX=0.5;exitY=-0.015;exitPerimeter=0;entryX=1.005;entryY=0.5;entryPerimeter=0;lucidId=5NcdTIrPEX5_;fillColor=none;" edge="1" parent="1" source="gnkaqfE58BtBJmnsjo4r-46" target="gnkaqfE58BtBJmnsjo4r-52">
          <mxGeometry width="100" height="100" relative="1" as="geometry">
            <Array as="points" />
          </mxGeometry>
        </mxCell>
        <mxCell id="gnkaqfE58BtBJmnsjo4r-54" value="" style="html=1;jettySize=18;whiteSpace=wrap;fontSize=52;dashed=1;fixDash=1;strokeWidth=9;rounded=0;startArrow=none;endArrow=block;endFill=1;exitX=1.006;exitY=0.5;exitPerimeter=0;entryX=-0.005;entryY=0.5;entryPerimeter=0;lucidId=~NcdM7BJnXxT;fillColor=none;" edge="1" parent="1" source="gnkaqfE58BtBJmnsjo4r-19" target="gnkaqfE58BtBJmnsjo4r-52">
          <mxGeometry width="100" height="100" relative="1" as="geometry">
            <Array as="points" />
          </mxGeometry>
        </mxCell>
        <mxCell id="gnkaqfE58BtBJmnsjo4r-56" value="Fornece mantimentos e produtos" style="html=1;overflow=block;blockSpacing=1;whiteSpace=wrap;ellipse;fontSize=52;spacing=3.8;rounded=1;absoluteArcSize=1;arcSize=9;fillColor=none;strokeWidth=9;lucidId=FZcdq__H7st_;" vertex="1" parent="1">
          <mxGeometry x="3615" y="4500" width="704" height="345" as="geometry" />
        </mxCell>
        <mxCell id="gnkaqfE58BtBJmnsjo4r-57" value="Faz pedidos de produtos" style="html=1;overflow=block;blockSpacing=1;whiteSpace=wrap;ellipse;fontSize=52;spacing=3.8;rounded=1;absoluteArcSize=1;arcSize=9;fillColor=none;strokeWidth=9;lucidId=j0cdSnjI2tbt;" vertex="1" parent="1">
          <mxGeometry x="885" y="2940" width="704" height="345" as="geometry" />
        </mxCell>
        <mxCell id="gnkaqfE58BtBJmnsjo4r-58" value="" style="html=1;jettySize=18;whiteSpace=wrap;fontSize=52;strokeWidth=9;rounded=1;arcSize=12;edgeStyle=orthogonalEdgeStyle;startArrow=none;endArrow=none;exitX=-0.005;exitY=0.5;exitPerimeter=0;lucidId=y0cdnkN.m35U;fillColor=none;" edge="1" parent="1" source="gnkaqfE58BtBJmnsjo4r-57">
          <mxGeometry width="100" height="100" relative="1" as="geometry">
            <Array as="points" />
            <mxPoint x="554" y="3113" as="targetPoint" />
          </mxGeometry>
        </mxCell>
        <mxCell id="gnkaqfE58BtBJmnsjo4r-59" value="" style="html=1;jettySize=18;whiteSpace=wrap;fontSize=52;dashed=1;fixDash=1;strokeWidth=9;rounded=0;startArrow=none;endArrow=block;endFill=1;exitX=0.5;exitY=-0.011;exitPerimeter=0;entryX=1.005;entryY=0.5;entryPerimeter=0;lucidId=L0cdGiy6wI_6;fillColor=none;dashPattern=12 12;" edge="1" parent="1" source="gnkaqfE58BtBJmnsjo4r-56" target="gnkaqfE58BtBJmnsjo4r-57">
          <mxGeometry width="100" height="100" relative="1" as="geometry">
            <Array as="points" />
          </mxGeometry>
        </mxCell>
        <mxCell id="gnkaqfE58BtBJmnsjo4r-62" value="" style="html=1;jettySize=18;whiteSpace=wrap;fontSize=52;dashed=1;fixDash=1;strokeWidth=9;rounded=1;arcSize=12;curved=1;startArrow=none;endArrow=block;endFill=1;exitX=1.005;exitY=0.5;exitPerimeter=0;entryX=1.005;entryY=0.5;entryPerimeter=0;lucidId=v2cdo5ITlBtc;fillColor=none;dashPattern=12 12;" edge="1" parent="1" source="gnkaqfE58BtBJmnsjo4r-38" target="gnkaqfE58BtBJmnsjo4r-57">
          <mxGeometry width="100" height="100" relative="1" as="geometry">
            <Array as="points">
              <mxPoint x="2197" y="2516" />
              <mxPoint x="1840" y="2959" />
            </Array>
          </mxGeometry>
        </mxCell>
        <mxCell id="gnkaqfE58BtBJmnsjo4r-64" value="Cadastra fornecedores" style="html=1;overflow=block;blockSpacing=1;whiteSpace=wrap;ellipse;fontSize=52;spacing=3.8;rounded=1;absoluteArcSize=1;arcSize=9;fillColor=none;strokeWidth=9;lucidId=E3cdSo4TxMKM;" vertex="1" parent="1">
          <mxGeometry x="870" y="3525" width="704" height="345" as="geometry" />
        </mxCell>
        <mxCell id="gnkaqfE58BtBJmnsjo4r-70" value="&lt;span style=&quot;color: rgb(40, 44, 51); font-family: Helvetica; font-size: 52px; font-style: normal; font-variant-ligatures: normal; font-variant-caps: normal; font-weight: 400; letter-spacing: normal; orphans: 2; text-align: center; text-indent: 0px; text-transform: none; widows: 2; word-spacing: 0px; -webkit-text-stroke-width: 0px; white-space: normal; background-color: rgb(251, 251, 251); text-decoration-thickness: initial; text-decoration-style: initial; text-decoration-color: initial; float: none; display: inline !important;&quot;&gt;&amp;lt;&amp;lt;include&amp;gt;&amp;gt;&lt;/span&gt;" style="text;whiteSpace=wrap;html=1;fontFamily=Helvetica;fontSize=52;strokeWidth=9;fillColor=none;" vertex="1" parent="1">
          <mxGeometry x="2130" y="2540" width="460" height="120" as="geometry" />
        </mxCell>
        <mxCell id="gnkaqfE58BtBJmnsjo4r-75" value="&lt;span style=&quot;color: rgb(40, 44, 51); font-family: Helvetica; font-size: 52px; font-style: normal; font-variant-ligatures: normal; font-variant-caps: normal; font-weight: 400; letter-spacing: normal; orphans: 2; text-align: center; text-indent: 0px; text-transform: none; widows: 2; word-spacing: 0px; -webkit-text-stroke-width: 0px; white-space: normal; background-color: rgb(251, 251, 251); text-decoration-thickness: initial; text-decoration-style: initial; text-decoration-color: initial; float: none; display: inline !important;&quot;&gt;&amp;lt;&amp;lt;include&amp;gt;&amp;gt;&lt;/span&gt;" style="text;whiteSpace=wrap;html=1;fontFamily=Helvetica;fontSize=52;strokeWidth=9;fillColor=none;" vertex="1" parent="1">
          <mxGeometry x="2870" y="4230" width="460" height="120" as="geometry" />
        </mxCell>
        <mxCell id="gnkaqfE58BtBJmnsjo4r-79" value="&lt;span style=&quot;color: rgb(40, 44, 51); font-family: Helvetica; font-size: 52px; font-style: normal; font-variant-ligatures: normal; font-variant-caps: normal; font-weight: 400; letter-spacing: normal; orphans: 2; text-align: center; text-indent: 0px; text-transform: none; widows: 2; word-spacing: 0px; -webkit-text-stroke-width: 0px; white-space: normal; background-color: rgb(251, 251, 251); text-decoration-thickness: initial; text-decoration-style: initial; text-decoration-color: initial; float: none; display: inline !important;&quot;&gt;Generalização&lt;/span&gt;" style="text;whiteSpace=wrap;html=1;fontFamily=Helvetica;fontSize=52;strokeWidth=9;fillColor=none;" vertex="1" parent="1">
          <mxGeometry x="-380" y="-830" width="420" height="100" as="geometry" />
        </mxCell>
        <mxCell id="gnkaqfE58BtBJmnsjo4r-80" value="&lt;span style=&quot;color: rgb(40, 44, 51); font-family: Helvetica; font-size: 52px; font-style: normal; font-variant-ligatures: normal; font-variant-caps: normal; font-weight: 400; letter-spacing: normal; orphans: 2; text-align: center; text-indent: 0px; text-transform: none; widows: 2; word-spacing: 0px; -webkit-text-stroke-width: 0px; white-space: normal; background-color: rgb(251, 251, 251); text-decoration-thickness: initial; text-decoration-style: initial; text-decoration-color: initial; float: none; display: inline !important;&quot;&gt;Generalização&lt;/span&gt;" style="text;whiteSpace=wrap;html=1;fontFamily=Helvetica;fontSize=52;strokeWidth=9;fillColor=none;" vertex="1" parent="1">
          <mxGeometry x="-650" y="-1320" width="420" height="100" as="geometry" />
        </mxCell>
        <mxCell id="gnkaqfE58BtBJmnsjo4r-81" value="&lt;span style=&quot;color: rgb(40, 44, 51); font-family: Helvetica; font-size: 52px; font-style: normal; font-variant-ligatures: normal; font-variant-caps: normal; font-weight: 400; letter-spacing: normal; orphans: 2; text-align: center; text-indent: 0px; text-transform: none; widows: 2; word-spacing: 0px; -webkit-text-stroke-width: 0px; white-space: normal; background-color: rgb(251, 251, 251); text-decoration-thickness: initial; text-decoration-style: initial; text-decoration-color: initial; float: none; display: inline !important;&quot;&gt;Generalização&lt;/span&gt;" style="text;whiteSpace=wrap;html=1;fontFamily=Helvetica;fontSize=52;strokeWidth=9;fillColor=none;" vertex="1" parent="1">
          <mxGeometry x="-930" width="420" height="100" as="geometry" />
        </mxCell>
        <mxCell id="gnkaqfE58BtBJmnsjo4r-83" value="Text" style="text;html=1;align=center;verticalAlign=middle;resizable=0;points=[];autosize=1;fillColor=none;fontFamily=Helvetica;fontSize=52;strokeWidth=9;" vertex="1" parent="1">
          <mxGeometry x="5080" y="4693" width="120" height="80" as="geometry" />
        </mxCell>
        <mxCell id="gnkaqfE58BtBJmnsjo4r-175" value="" style="html=1;overflow=block;blockSpacing=1;whiteSpace=wrap;fontSize=52;spacing=0;strokeOpacity=100;fillOpacity=100;rounded=1;absoluteArcSize=1;arcSize=9;fillColor=none;strokeWidth=9;lucidId=vnddD5kjl2zm;" vertex="1" parent="1">
          <mxGeometry x="560" y="3694" width="310" height="2" as="geometry" />
        </mxCell>
        <mxCell id="gnkaqfE58BtBJmnsjo4r-191" style="edgeStyle=orthogonalEdgeStyle;rounded=0;orthogonalLoop=1;jettySize=auto;html=1;fontFamily=Helvetica;fontSize=12;fontColor=default;strokeWidth=9;endArrow=none;endFill=0;" edge="1" parent="1" source="gnkaqfE58BtBJmnsjo4r-176">
          <mxGeometry relative="1" as="geometry">
            <mxPoint x="160" y="2290" as="targetPoint" />
          </mxGeometry>
        </mxCell>
        <mxCell id="gnkaqfE58BtBJmnsjo4r-176" value="Emite nota fiscal de pedido" style="html=1;overflow=block;blockSpacing=1;whiteSpace=wrap;ellipse;fontSize=52;spacing=3.8;rounded=1;absoluteArcSize=1;arcSize=9;fillColor=none;strokeWidth=9;lucidId=EpddXtmrEr6c;" vertex="1" parent="1">
          <mxGeometry x="2814" y="1830" width="713" height="338" as="geometry" />
        </mxCell>
        <mxCell id="gnkaqfE58BtBJmnsjo4r-179" value="" style="html=1;jettySize=18;whiteSpace=wrap;fontSize=52;dashed=1;fixDash=1;strokeWidth=9;rounded=0;startArrow=none;exitX=0.587;exitY=0.994;exitPerimeter=0;entryX=0.5;entryY=0;lucidId=YrddJ.-66U.X;entryDx=0;entryDy=0;fillColor=none;dashPattern=12 12;" edge="1" parent="1" source="gnkaqfE58BtBJmnsjo4r-176" target="gnkaqfE58BtBJmnsjo4r-56">
          <mxGeometry width="100" height="100" relative="1" as="geometry">
            <Array as="points" />
            <mxPoint x="4117.205999999998" y="4540.384" as="targetPoint" />
          </mxGeometry>
        </mxCell>
        <mxCell id="gnkaqfE58BtBJmnsjo4r-181" value="Realiza check-in do hóspede" style="html=1;overflow=block;blockSpacing=1;whiteSpace=wrap;ellipse;fontSize=52;spacing=3.8;rounded=1;absoluteArcSize=1;arcSize=9;fillColor=none;strokeWidth=9;lucidId=AuddFBvROL3v;" vertex="1" parent="1">
          <mxGeometry x="1150" y="-2048" width="713" height="338" as="geometry" />
        </mxCell>
        <mxCell id="gnkaqfE58BtBJmnsjo4r-183" value="" style="html=1;jettySize=18;whiteSpace=wrap;fontSize=52;dashed=1;fixDash=1;strokeWidth=9;rounded=1;arcSize=12;edgeStyle=orthogonalEdgeStyle;startArrow=none;endArrow=block;endFill=1;exitX=1.002;exitY=0.5;exitPerimeter=0;lucidId=UAddtZjVsRnx;fillColor=none;" edge="1" parent="1" source="gnkaqfE58BtBJmnsjo4r-181">
          <mxGeometry width="100" height="100" relative="1" as="geometry">
            <Array as="points">
              <mxPoint x="4418" y="-1893" />
            </Array>
            <mxPoint x="4418" y="-1131" as="targetPoint" />
          </mxGeometry>
        </mxCell>
        <mxCell id="gnkaqfE58BtBJmnsjo4r-185" value="Gera historico de hospedagem e dispesas" style="html=1;overflow=block;blockSpacing=1;whiteSpace=wrap;ellipse;fontSize=52;spacing=3.8;rounded=1;absoluteArcSize=1;arcSize=9;fillColor=none;strokeWidth=9;lucidId=2BddRxAJj2M0;" vertex="1" parent="1">
          <mxGeometry x="1833" y="-3500" width="713" height="338" as="geometry" />
        </mxCell>
        <mxCell id="gnkaqfE58BtBJmnsjo4r-186" value="" style="html=1;jettySize=18;whiteSpace=wrap;fontSize=52;strokeWidth=9;rounded=1;arcSize=12;edgeStyle=orthogonalEdgeStyle;startArrow=none;endArrow=none;exitX=-0.002;exitY=0.5;exitPerimeter=0;lucidId=jCddAQpKVE3g;fillColor=none;" edge="1" parent="1" source="gnkaqfE58BtBJmnsjo4r-187">
          <mxGeometry width="100" height="100" relative="1" as="geometry">
            <Array as="points">
              <mxPoint x="258" y="-2471" />
            </Array>
            <mxPoint x="275" y="-1879" as="targetPoint" />
          </mxGeometry>
        </mxCell>
        <mxCell id="gnkaqfE58BtBJmnsjo4r-187" value="Realiza chckout  do hóspede" style="html=1;overflow=block;blockSpacing=1;whiteSpace=wrap;ellipse;fontSize=52;spacing=3.8;rounded=1;absoluteArcSize=1;arcSize=9;fillColor=none;strokeWidth=9;lucidId=ECdd-4_lxW2l;" vertex="1" parent="1">
          <mxGeometry x="1150" y="-2640" width="713" height="338" as="geometry" />
        </mxCell>
        <mxCell id="gnkaqfE58BtBJmnsjo4r-188" value="" style="html=1;jettySize=18;whiteSpace=wrap;fontSize=52;dashed=1;fixDash=1;strokeWidth=9;rounded=0;startArrow=none;endArrow=block;endFill=1;exitX=0.21;exitY=0.911;exitPerimeter=0;entryX=0.76;entryY=0.069;entryPerimeter=0;lucidId=BDddTDzTfDuV;fillColor=none;" edge="1" parent="1" source="gnkaqfE58BtBJmnsjo4r-185" target="gnkaqfE58BtBJmnsjo4r-187">
          <mxGeometry width="100" height="100" relative="1" as="geometry">
            <Array as="points" />
          </mxGeometry>
        </mxCell>
        <mxCell id="gnkaqfE58BtBJmnsjo4r-189" value="&amp;lt;&amp;lt;include&amp;gt;&amp;gt;" style="html=1;overflow=block;blockSpacing=1;whiteSpace=wrap;fontSize=52;spacing=0;strokeOpacity=100;fillOpacity=100;rounded=1;absoluteArcSize=1;arcSize=9;fillColor=none;strokeWidth=9;lucidId=HDdd7.F0O3pJ;" vertex="1" parent="1">
          <mxGeometry x="942" y="-3077" width="892" height="169" as="geometry" />
        </mxCell>
        <mxCell id="gnkaqfE58BtBJmnsjo4r-190" style="edgeStyle=orthogonalEdgeStyle;rounded=0;orthogonalLoop=1;jettySize=auto;html=1;entryX=0.5;entryY=0;entryDx=0;entryDy=0;entryPerimeter=0;fontFamily=Helvetica;fontSize=12;fontColor=default;strokeWidth=9;endArrow=none;endFill=0;" edge="1" parent="1" source="gnkaqfE58BtBJmnsjo4r-38" target="gnkaqfE58BtBJmnsjo4r-35">
          <mxGeometry relative="1" as="geometry" />
        </mxCell>
        <mxCell id="gnkaqfE58BtBJmnsjo4r-192" value="&lt;span style=&quot;color: rgb(40, 44, 51); font-family: Helvetica; font-size: 52px; font-style: normal; font-variant-ligatures: normal; font-variant-caps: normal; font-weight: 400; letter-spacing: normal; orphans: 2; text-align: center; text-indent: 0px; text-transform: none; widows: 2; word-spacing: 0px; -webkit-text-stroke-width: 0px; white-space: normal; background-color: rgb(251, 251, 251); text-decoration-thickness: initial; text-decoration-style: initial; text-decoration-color: initial; float: none; display: inline !important;&quot;&gt;&amp;lt;&amp;lt;include&amp;gt;&amp;gt;&lt;/span&gt;" style="text;whiteSpace=wrap;html=1;fontFamily=Helvetica;fontSize=52;strokeWidth=9;fillColor=none;" vertex="1" parent="1">
          <mxGeometry x="3720" y="3440" width="460" height="120" as="geometry" />
        </mxCell>
        <mxCell id="gnkaqfE58BtBJmnsjo4r-193" value="&lt;span style=&quot;color: rgb(40, 44, 51); font-family: Helvetica; font-size: 52px; font-style: normal; font-variant-ligatures: normal; font-variant-caps: normal; font-weight: 400; letter-spacing: normal; orphans: 2; text-align: center; text-indent: 0px; text-transform: none; widows: 2; word-spacing: 0px; -webkit-text-stroke-width: 0px; white-space: normal; background-color: rgb(251, 251, 251); text-decoration-thickness: initial; text-decoration-style: initial; text-decoration-color: initial; float: none; display: inline !important;&quot;&gt;&amp;lt;&amp;lt;include&amp;gt;&amp;gt;&lt;/span&gt;" style="text;whiteSpace=wrap;html=1;fontFamily=Helvetica;fontSize=52;strokeWidth=9;fillColor=none;" vertex="1" parent="1">
          <mxGeometry x="2814" y="3050" width="460" height="120" as="geometry" />
        </mxCell>
        <mxCell id="gnkaqfE58BtBJmnsjo4r-195" value="Text" style="text;html=1;align=center;verticalAlign=middle;resizable=0;points=[];autosize=1;strokeColor=none;fillColor=none;fontFamily=Helvetica;fontSize=12;fontColor=default;" vertex="1" parent="1">
          <mxGeometry x="305" y="1558" width="50" height="30" as="geometry" />
        </mxCell>
        <mxCell id="gnkaqfE58BtBJmnsjo4r-197" value="&lt;span style=&quot;color: rgb(40, 44, 51); font-family: Helvetica; font-size: 52px; font-style: normal; font-variant-ligatures: normal; font-variant-caps: normal; font-weight: 400; letter-spacing: normal; orphans: 2; text-align: center; text-indent: 0px; text-transform: none; widows: 2; word-spacing: 0px; -webkit-text-stroke-width: 0px; white-space: normal; background-color: rgb(251, 251, 251); text-decoration-thickness: initial; text-decoration-style: initial; text-decoration-color: initial; float: none; display: inline !important;&quot;&gt;Generalização&lt;/span&gt;" style="text;whiteSpace=wrap;html=1;fontFamily=Helvetica;fontSize=52;strokeWidth=9;fillColor=none;" vertex="1" parent="1">
          <mxGeometry x="-279" y="-20" width="420" height="100" as="geometry" />
        </mxCell>
        <mxCell id="gnkaqfE58BtBJmnsjo4r-198" value="&lt;span style=&quot;color: rgb(40, 44, 51); font-family: Helvetica; font-size: 52px; font-style: normal; font-variant-ligatures: normal; font-variant-caps: normal; font-weight: 400; letter-spacing: normal; orphans: 2; text-align: center; text-indent: 0px; text-transform: none; widows: 2; word-spacing: 0px; -webkit-text-stroke-width: 0px; white-space: normal; background-color: rgb(251, 251, 251); text-decoration-thickness: initial; text-decoration-style: initial; text-decoration-color: initial; float: none; display: inline !important;&quot;&gt;Generalização&lt;/span&gt;" style="text;whiteSpace=wrap;html=1;fontFamily=Helvetica;fontSize=52;strokeWidth=9;fillColor=none;" vertex="1" parent="1">
          <mxGeometry x="-290" y="1190" width="420" height="100" as="geometry" />
        </mxCell>
        <mxCell id="gnkaqfE58BtBJmnsjo4r-199" style="edgeStyle=orthogonalEdgeStyle;rounded=0;orthogonalLoop=1;jettySize=auto;html=1;entryX=0.5;entryY=0;entryDx=0;entryDy=0;entryPerimeter=0;fontFamily=Helvetica;fontSize=12;fontColor=default;endArrow=none;endFill=0;strokeWidth=9;" edge="1" parent="1" source="gnkaqfE58BtBJmnsjo4r-181" target="gnkaqfE58BtBJmnsjo4r-16">
          <mxGeometry relative="1" as="geometry" />
        </mxCell>
      </root>
    </mxGraphModel>
  </diagram>
</mxfile>
